<!DOCTYPE svg PUBLIC "-//W3C//DTD SVG 1.1//EN" "http://www.w3.org/Graphics/SVG/1.1/DTD/svg11.dtd">
<!-- Uploaded to: SVG Repo, www.svgrepo.com, Transformed by: SVG Repo Mixer Tools -->
<svg fill="#ffffff" height="64px" width="64px" version="1.1" id="Icons" xmlns="http://www.w3.org/2000/svg" xmlns:xlink="http://www.w3.org/1999/xlink" viewBox="0 0 32 32" xml:space="preserve" stroke="#ffffff">
<g id="SVGRepo_bgCarrier" stroke-width="0"/>
<g id="SVGRepo_tracerCarrier" stroke-linecap="round" stroke-linejoin="round"/>
<g id="SVGRepo_iconCarrier"> <g> <path d="M24.4,24c-0.9,0-1.8-0.3-2.5-1l-5.8-5.7c-0.1-0.1-0.2-0.1-0.3,0L10.1,23c-1.4,1.4-3.6,1.4-5,0c-0.7-0.7-1-1.6-1-2.5 c0-1,0.4-1.8,1-2.5l9.4-9.3c0.9-0.9,2.3-0.9,3.1,0l9.4,9.3c0.7,0.7,1,1.6,1,2.5c0,1-0.4,1.8-1,2.5C26.2,23.7,25.3,24,24.4,24z"/> </g> </g>
</svg>